<svg width="17" height="14" viewBox="0 0 17 14" fill="none" xmlns="http://www.w3.org/2000/svg">
<path d="M11.8334 13V11.6667C11.8334 10.9594 11.5525 10.2811 11.0524 9.78105C10.5523 9.28095 9.87399 9 9.16675 9H3.83341C3.12617 9 2.44789 9.28095 1.9478 9.78105C1.4477 10.2811 1.16675 10.9594 1.16675 11.6667V13M15.8334 13V11.6667C15.833 11.0758 15.6363 10.5018 15.2743 10.0349C14.9123 9.56791 14.4055 9.23438 13.8334 9.08667M11.1667 1.08667C11.7404 1.23353 12.2488 1.56713 12.6118 2.03487C12.9749 2.50261 13.172 3.07789 13.172 3.67C13.172 4.26211 12.9749 4.83739 12.6118 5.30513C12.2488 5.77287 11.7404 6.10647 11.1667 6.25333M9.16675 3.66667C9.16675 5.13943 7.97284 6.33333 6.50008 6.33333C5.02732 6.33333 3.83341 5.13943 3.83341 3.66667C3.83341 2.19391 5.02732 1 6.50008 1C7.97284 1 9.16675 2.19391 9.16675 3.66667Z" stroke="#192C45" stroke-width="1.5" stroke-linecap="round" stroke-linejoin="round"/>
</svg>
