<svg width="25" height="24" viewBox="0 0 25 24" fill="none" xmlns="http://www.w3.org/2000/svg">
<path d="M2.33325 3.00006H8.33325C9.39412 3.00006 10.4115 3.42149 11.1617 4.17163C11.9118 4.92178 12.3333 5.9392 12.3333 7.00006V21.0001C12.3333 20.2044 12.0172 19.4413 11.4546 18.8787C10.892 18.3161 10.1289 18.0001 9.33325 18.0001H2.33325V3.00006Z" stroke="#6C6C6C" stroke-width="1.5" stroke-linecap="round" stroke-linejoin="round"/>
<path d="M22.3333 3.00006H16.3333C15.2724 3.00006 14.255 3.42149 13.5048 4.17163C12.7547 4.92178 12.3333 5.9392 12.3333 7.00006V21.0001C12.3333 20.2044 12.6493 19.4413 13.2119 18.8787C13.7745 18.3161 14.5376 18.0001 15.3333 18.0001H22.3333V3.00006Z" stroke="#6C6C6C" stroke-width="1.5" stroke-linecap="round" stroke-linejoin="round"/>
</svg>
