<svg width="102" height="122" viewBox="0 0 102 122" fill="none" xmlns="http://www.w3.org/2000/svg">
<g clip-path="url(#clip0_246_2176)">
<path opacity="0.21" d="M59.5798 122C89.5633 122 113.87 118.1 113.87 113.29C113.87 108.48 89.5633 104.58 59.5798 104.58C29.5963 104.58 5.28979 108.48 5.28979 113.29C5.28979 118.1 29.5963 122 59.5798 122Z" fill="#F5F5F5"/>
<path d="M42.04 117.21C45.5414 117.21 48.38 115.482 48.38 113.35C48.38 111.218 45.5414 109.49 42.04 109.49C38.5385 109.49 35.7 111.218 35.7 113.35C35.7 115.482 38.5385 117.21 42.04 117.21Z" fill="#192C45"/>
<path d="M47 113.5V88.28" stroke="#192C45" stroke-width="3" stroke-linecap="round" stroke-linejoin="round"/>
<path d="M86.1637 116.725C89.472 115.578 91.5879 113.016 90.8896 111.002C90.1913 108.987 86.9433 108.284 83.635 109.431C80.3267 110.578 78.2108 113.141 78.9091 115.155C79.6074 117.169 82.8554 117.872 86.1637 116.725Z" fill="#192C45"/>
<path d="M80.23 114.9C77.48 106.96 74.72 99.01 71.97 91.07" stroke="#192C45" stroke-width="3" stroke-linecap="round" stroke-linejoin="round"/>
<path d="M101.738 91.5298C103.158 89.3964 103.064 86.8385 101.528 85.8166C99.9925 84.7947 97.5967 85.6958 96.1771 87.8293C94.7575 89.9628 94.8516 92.5207 96.3874 93.5425C97.9231 94.5644 100.319 93.6633 101.738 91.5298Z" fill="#192C45"/>
<path d="M94.3198 61.61C96.2698 63.94 98.5198 67.24 100.11 71.54C100.8 73.4 101.99 76.69 102.1 81.17C102.18 84.77 101.53 87.72 100.93 89.7" stroke="#192C45" stroke-width="3" stroke-linecap="round" stroke-linejoin="round"/>
<path d="M22.14 66.06C11.25 64.44 2.99998 69.73 1.78998 76.72C1.14998 80.42 2.32998 85.45 5.53998 88.54C9.33998 92.2 15.27 92.45 19.96 88.73" stroke="#192C45" stroke-width="3" stroke-linecap="round" stroke-linejoin="round"/>
<path d="M60.0599 96.61C80.997 96.61 97.9699 80.94 97.9699 61.61C97.9699 42.2801 80.997 26.61 60.0599 26.61C39.1228 26.61 22.1499 42.2801 22.1499 61.61C22.1499 80.94 39.1228 96.61 60.0599 96.61Z" fill="#60C6CF"/>
<path d="M43.0099 79.77C43.5999 76.48 36.0699 72.38 26.1999 70.62C16.3299 68.86 7.84991 70.1 7.25991 73.39L6.90991 75.37L4.68991 87.83C4.63991 88.13 4.55991 88.53 4.55991 88.53C4.55991 88.53 4.46991 89.07 4.43991 89.26C3.84991 92.55 11.3799 96.65 21.2499 98.41C31.1199 100.17 39.4899 98.91 40.1899 95.64C40.2399 95.4 40.2499 95.38 40.3299 94.91C40.3899 94.56 40.3999 94.52 40.4399 94.21L42.6599 81.75C42.7299 81.33 42.7599 81.17 42.8699 80.57C42.9799 80.14 42.9699 80.03 43.0099 79.77Z" fill="#F9DFB9" stroke="#F9DFB9" stroke-miterlimit="10"/>
<path d="M6.67996 78.58C6.39996 78.78 5.83996 79.24 5.87996 79.76C5.93996 80.49 7.12996 80.88 7.97996 81.17C8.66996 81.4 9.74996 81.66 11.14 81.59" stroke="#EF9F3E" stroke-width="2" stroke-linecap="round" stroke-linejoin="round"/>
<path d="M43.0473 79.6146C43.6353 76.3199 36.1081 72.2203 26.2346 70.458C16.3612 68.6957 7.88042 69.9381 7.29234 73.2328C6.70427 76.5276 14.2316 80.6272 24.105 82.3894C33.9785 84.1517 42.4592 82.9094 43.0473 79.6146Z" fill="#3C2E3D" stroke="#F9DFB9" stroke-miterlimit="10"/>
<path d="M41.131 79.0984C41.5783 76.5919 34.7744 73.2809 25.934 71.703C17.0935 70.1251 9.56427 70.8778 9.11691 73.3843C8.66955 75.8907 15.4735 79.2017 24.3139 80.7796C33.1543 82.3575 40.6836 81.6048 41.131 79.0984Z" fill="#4E3D50"/>
<path opacity="0.68" d="M35.5398 96.61C36.8798 96.17 37.8598 95.53 38.4798 95.05" stroke="#F2F2F2" stroke-linecap="round" stroke-linejoin="round"/>
<path d="M87.0099 11.28C84.8299 10.43 82.4399 11.35 81.6599 13.34L75.4399 29.21H75.4499C74.7699 31.18 75.8799 33.4 78.0099 34.23C80.1399 35.06 82.4699 34.19 83.2999 32.29H83.3099L89.5299 16.43C90.3099 14.44 89.1799 12.13 86.9999 11.28H87.0099Z" fill="#60C6CF"/>
<path d="M80.6598 6.96C78.4198 6.3 76.0598 7.58 75.3998 9.82L70.1398 27.68H70.1498C69.5898 29.88 70.8498 32.15 73.0398 32.79C75.2298 33.43 77.5198 32.22 78.2398 30.07H78.2498L83.5098 12.21C84.1698 9.97 82.8898 7.61 80.6498 6.95L80.6598 6.96Z" fill="#60C6CF"/>
<path d="M73.7498 3.32C71.4598 2.86 69.1998 4.45 68.7098 6.88L64.7998 26.24H64.8098C64.4098 28.61 65.8498 30.87 68.0898 31.32C70.3298 31.77 72.5298 30.25 73.0798 27.91H73.0898L76.9998 8.55C77.4898 6.12 76.0298 3.77 73.7398 3.31L73.7498 3.32Z" fill="#60C6CF"/>
<path d="M77.2698 84.43C77.6454 84.43 77.9498 84.1256 77.9498 83.75C77.9498 83.3745 77.6454 83.07 77.2698 83.07C76.8943 83.07 76.5898 83.3745 76.5898 83.75C76.5898 84.1256 76.8943 84.43 77.2698 84.43Z" fill="#F2F2F2"/>
<path d="M79.4798 83.07C79.8554 83.07 80.1598 82.7656 80.1598 82.39C80.1598 82.0145 79.8554 81.71 79.4798 81.71C79.1043 81.71 78.7998 82.0145 78.7998 82.39C78.7998 82.7656 79.1043 83.07 79.4798 83.07Z" fill="#F2F2F2"/>
<path d="M79.2098 85.11C79.5853 85.11 79.8898 84.8056 79.8898 84.43C79.8898 84.0544 79.5853 83.75 79.2098 83.75C78.8342 83.75 78.5298 84.0544 78.5298 84.43C78.5298 84.8056 78.8342 85.11 79.2098 85.11Z" fill="#F2F2F2"/>
<path opacity="0.68" d="M91.4599 53.32C91.1199 51.72 90.4699 49.54 89.1799 47.19C87.6199 44.36 85.7499 42.41 84.4099 41.21" stroke="#F2F2F2" stroke-width="2" stroke-linecap="round" stroke-linejoin="round"/>
<path opacity="0.68" d="M81.5598 37.76C81.2498 37.34 80.8498 36.85 80.3198 36.37C79.6098 35.71 78.8998 35.25 78.3298 34.94" stroke="#F2F2F2" stroke-width="2" stroke-linecap="round" stroke-linejoin="round"/>
<path d="M72.03 72.21C78.1327 72.21 83.08 67.2627 83.08 61.16C83.08 55.0572 78.1327 50.11 72.03 50.11C65.9272 50.11 60.98 55.0572 60.98 61.16C60.98 67.2627 65.9272 72.21 72.03 72.21Z" fill="#F2F2F2"/>
<path d="M70.0299 68.53C74.1003 68.53 77.3999 65.2303 77.3999 61.16C77.3999 57.0896 74.1003 53.79 70.0299 53.79C65.9596 53.79 62.6599 57.0896 62.6599 61.16C62.6599 65.2303 65.9596 68.53 70.0299 68.53Z" fill="#192C45"/>
<path d="M47.1298 72.21C53.2326 72.21 58.1798 67.2627 58.1798 61.16C58.1798 55.0572 53.2326 50.11 47.1298 50.11C41.0271 50.11 36.0798 55.0572 36.0798 61.16C36.0798 67.2627 41.0271 72.21 47.1298 72.21Z" fill="#F2F2F2"/>
<path d="M49.1298 68.53C53.2001 68.53 56.4998 65.2303 56.4998 61.16C56.4998 57.0896 53.2001 53.79 49.1298 53.79C45.0594 53.79 41.7598 57.0896 41.7598 61.16C41.7598 65.2303 45.0594 68.53 49.1298 68.53Z" fill="#192C45"/>
<path d="M55.3499 74.53C55.7699 74.91 57.0999 75.99 59.1199 76.14C61.5699 76.33 63.2799 75.02 63.6599 74.71" stroke="#192C45" stroke-width="2" stroke-linecap="round" stroke-linejoin="round"/>
<path d="M19.7497 93.6781C21.6253 93.3756 22.8151 91.0795 22.4071 88.5496C21.9992 86.0197 20.148 84.214 18.2724 84.5164C16.3967 84.8188 15.2069 87.1149 15.6149 89.6449C16.0228 92.1748 17.874 93.9805 19.7497 93.6781Z" fill="#192C45"/>
<path d="M63.33 21.52C61.85 21.24 60.37 20.96 58.88 20.67C58.67 21.05 58.46 21.45 58.27 21.9C57.62 23.39 57.33 24.79 57.21 25.93C57.73 26.39 58.47 27.03 59.39 27.75C63.58 31.02 67.28 32.73 70.31 34.1C73.25 35.43 77.35 37.27 83.1 38.47C86.11 39.1 88.7 39.38 90.6 39.5C90.86 39.06 91.13 38.59 91.39 38.09C91.8 37.28 92.14 36.51 92.41 35.8C92.07 35.69 91.69 35.55 91.29 35.37C91.29 35.37 90.44 34.98 89.58 34.33C88.66 33.63 87.17 32.09 85.62 29.84C84.06 30.59 83.42 30.89 82.59 31.29C82.04 31.56 81.74 31.59 80.63 31.74C80.11 31.81 80.1 31.79 79.09 31.89C79.09 31.89 78.09 31.84 76.95 31.6C75.89 31.41 75.83 31.38 73.02 30.22C70.81 29.31 69.71 28.86 68.75 28.23C67.77 27.59 66.9 27.04 66.07 26C65.77 25.62 65.63 25.37 64.69 23.82C64.08 22.81 63.59 22 63.29 21.52H63.33Z" fill="#F2F2F2" stroke="#F5F5F5" stroke-width="2" stroke-linecap="round" stroke-linejoin="round"/>
<path d="M99.2999 18.2C97.3099 17.38 95.1899 17.33 93.2499 17.89C93.8299 11.46 90.3099 5.19002 84.1499 2.66002C79.3799 0.710018 74.1599 1.47002 70.1499 4.22002C69.3199 3.43002 68.3399 2.77002 67.2199 2.31002C62.1499 0.230018 56.2799 2.85002 54.0999 8.15002C51.9199 13.45 54.2699 19.44 59.3399 21.52C60.9699 22.19 62.6799 22.37 64.3299 22.13C65.6999 25.97 68.5699 29.21 72.5899 30.86C77.2899 32.79 82.4299 32.07 86.4299 29.4C87.0699 32.33 89.0399 34.88 91.9599 36.08C96.7499 38.04 102.28 35.63 104.31 30.69C106.33 25.75 104.09 20.15 99.2899 18.19L99.2999 18.2Z" fill="#F2F2F2" stroke="#F5F5F5" stroke-width="2" stroke-linecap="round" stroke-linejoin="round"/>
<path d="M63.2598 19.33C63.3398 19.83 64.6498 27.11 71.6998 30.48C77.3098 33.16 84.1598 32.22 88.6298 28.06" fill="#F2F2F2"/>
<path d="M63.2598 19.33C63.3398 19.83 64.6498 27.11 71.6998 30.48C77.3098 33.16 84.1598 32.22 88.6298 28.06" stroke="#F5F5F5" stroke-width="2" stroke-linecap="round" stroke-linejoin="round"/>
<path d="M1.79999 76.72C1.15999 80.42 2.33999 85.45 5.54999 88.54C9.34999 92.2 15.28 92.45 19.97 88.73" stroke="#192C45" stroke-width="3" stroke-linecap="round" stroke-linejoin="round"/>
</g>
<defs>
<clipPath id="clip0_246_2176">
<rect width="113.74" height="121.42" fill="white" transform="translate(0.129883 0.580017)"/>
</clipPath>
</defs>
</svg>
