<svg width="25" height="25" viewBox="0 0 25 25" fill="none" xmlns="http://www.w3.org/2000/svg">
<path d="M8.77977 3.00069C9.40977 3.01985 10.0198 3.12985 10.6108 3.33085H10.6698C10.7098 3.34985 10.7398 3.37085 10.7598 3.38985C10.9808 3.46085 11.1898 3.54085 11.3898 3.65085L11.7698 3.82085C11.9198 3.90085 12.0998 4.04985 12.1998 4.11085C12.2998 4.16985 12.4098 4.23085 12.4998 4.29985C13.6108 3.45085 14.9598 2.99085 16.3498 3.00069C16.9808 3.00069 17.6108 3.08985 18.2098 3.29085C21.9008 4.49085 23.2308 8.54085 22.1198 12.0808C21.4898 13.8898 20.4598 15.5408 19.1108 16.8898C17.1798 18.7598 15.0608 20.4198 12.7798 21.8498L12.5298 22.0008L12.2698 21.8398C9.98077 20.4198 7.84977 18.7598 5.90077 16.8798C4.56077 15.5308 3.52977 13.8898 2.88977 12.0808C1.75977 8.54085 3.08977 4.49085 6.82077 3.26985C7.11077 3.16985 7.40977 3.09985 7.70977 3.06085H7.82977C8.11077 3.01985 8.38977 3.00069 8.66977 3.00069H8.77977ZM17.6898 6.16085C17.2798 6.01985 16.8298 6.24085 16.6798 6.66085C16.5398 7.08085 16.7598 7.54085 17.1798 7.68985C17.8208 7.92985 18.2498 8.56085 18.2498 9.25985V9.29085C18.2308 9.51985 18.2998 9.74085 18.4398 9.91085C18.5798 10.0808 18.7898 10.1798 19.0098 10.2008C19.4198 10.1898 19.7698 9.86085 19.7998 9.43985V9.32085C19.8298 7.91985 18.9808 6.65085 17.6898 6.16085Z" fill="#B1B1B1"/>
</svg>
