<svg width="24" height="24" viewBox="0 0 24 24" fill="none" xmlns="http://www.w3.org/2000/svg">
<path d="M12 0L11.6643 0.00461305C5.19531 0.182596 -9.53674e-07 5.48827 -9.53674e-07 12C-9.53674e-07 18.612 5.376 24 12 24C18.612 24 24 18.612 24 12C24 5.376 18.612 0 12 0ZM9.624 7.2C9.984 6.84 10.548 6.84 10.896 7.2L15.084 11.364C15.252 11.532 15.348 11.76 15.348 12C15.348 12.24 15.252 12.468 15.084 12.636L10.896 16.8C10.728 16.98 10.5 17.064 10.272 17.064C10.032 17.064 9.804 16.98 9.624 16.8C9.276 16.44 9.276 15.876 9.636 15.528L13.176 12L9.636 8.472C9.276 8.124 9.276 7.548 9.624 7.2Z" fill="#FF6961"/>
</svg>
